<svg xmlns="http://www.w3.org/2000/svg" xmlns:xlink="http://www.w3.org/1999/xlink" contentStyleType="text/css" height="348px" preserveAspectRatio="none" style="width:506px;height:348px;background:none;" version="1.1" viewBox="0 0 506 348" width="506px" zoomAndPan="magnify"><defs/><g><!--class User--><g id="elem_User"><rect codeLine="4" fill="none" height="129.4844" id="User" rx="2.5" ry="2.5" style="stroke:#B36C8F;stroke-width:0.5;" width="135.0996" x="7" y="7"/><ellipse cx="22" cy="23" fill="none" rx="11" ry="11" style="stroke:#B36C8F;stroke-width:1.0;"/><path d="M26.1094,29 L18.3906,29 L18.3906,16.6094 L26.1094,16.6094 L26.1094,18.7656 L20.8438,18.7656 L20.8438,21.4375 L25.6094,21.4375 L25.6094,23.5938 L20.8438,23.5938 L20.8438,26.8438 L26.1094,26.8438 L26.1094,29 Z " fill="#008B45"/><text fill="#008B45" font-family="sans-serif" font-size="14" lengthAdjust="spacing" textLength="103.0996" x="36" y="27.8467">Пользователь</text><line style="stroke:#B36C8F;stroke-width:0.5;" x1="8" x2="141.0996" y1="39" y2="39"/><ellipse cx="18" cy="52.6484" fill="#008B45" rx="3" ry="3" style="stroke:#B36C8F;stroke-width:1.0;"/><text fill="#008B45" font-family="sans-serif" font-size="14" lengthAdjust="spacing" textLength="73.1924" x="27" y="55.9951">id: int [PK]</text><line style="stroke:#B36C8F;stroke-width:1.0;" x1="8" x2="141.0996" y1="63.2969" y2="63.2969"/><text fill="#008B45" font-family="sans-serif" font-size="14" lengthAdjust="spacing" textLength="119.5947" x="13" y="80.292">username: string</text><text fill="#008B45" font-family="sans-serif" font-size="14" lengthAdjust="spacing" textLength="87.9648" x="13" y="96.5889">email: string</text><text fill="#008B45" font-family="sans-serif" font-size="14" lengthAdjust="spacing" textLength="116.0674" x="13" y="112.8857">password: string</text><text fill="#008B45" font-family="sans-serif" font-size="14" lengthAdjust="spacing" textLength="58.6934" x="13" y="129.1826">type: int</text></g><!--class Product--><g id="elem_Product"><rect codeLine="13" fill="none" height="113.1875" id="Product" rx="2.5" ry="2.5" style="stroke:#B36C8F;stroke-width:0.5;" width="139.1963" x="177" y="15"/><ellipse cx="212.0883" cy="31" fill="none" rx="11" ry="11" style="stroke:#B36C8F;stroke-width:1.0;"/><path d="M216.1977,37 L208.4789,37 L208.4789,24.6094 L216.1977,24.6094 L216.1977,26.7656 L210.932,26.7656 L210.932,29.4375 L215.6977,29.4375 L215.6977,31.5938 L210.932,31.5938 L210.932,34.8438 L216.1977,34.8438 L216.1977,37 Z " fill="#008B45"/><text fill="#008B45" font-family="sans-serif" font-size="14" lengthAdjust="spacing" textLength="62.5557" x="230.5523" y="35.8467">Продукт</text><line style="stroke:#B36C8F;stroke-width:0.5;" x1="178" x2="315.1963" y1="47" y2="47"/><ellipse cx="188" cy="60.6484" fill="#008B45" rx="3" ry="3" style="stroke:#B36C8F;stroke-width:1.0;"/><text fill="#008B45" font-family="sans-serif" font-size="14" lengthAdjust="spacing" textLength="73.1924" x="197" y="63.9951">id: int [PK]</text><line style="stroke:#B36C8F;stroke-width:1.0;" x1="178" x2="315.1963" y1="71.2969" y2="71.2969"/><text fill="#008B45" font-family="sans-serif" font-size="14" lengthAdjust="spacing" textLength="89.0586" x="183" y="88.292">name: string</text><text fill="#008B45" font-family="sans-serif" font-size="14" lengthAdjust="spacing" textLength="127.1963" x="183" y="104.5889">description: string</text><text fill="#008B45" font-family="sans-serif" font-size="14" lengthAdjust="spacing" textLength="111.2275" x="183" y="120.8857">category: string</text></g><!--class Review--><g id="elem_Review"><rect codeLine="21" fill="none" height="145.7813" id="Review" rx="2.5" ry="2.5" style="stroke:#B36C8F;stroke-width:0.5;" width="152.1641" x="80.5" y="196"/><ellipse cx="129.3701" cy="212" fill="none" rx="11" ry="11" style="stroke:#B36C8F;stroke-width:1.0;"/><path d="M133.4795,218 L125.7607,218 L125.7607,205.6094 L133.4795,205.6094 L133.4795,207.7656 L128.2139,207.7656 L128.2139,210.4375 L132.9795,210.4375 L132.9795,212.5938 L128.2139,212.5938 L128.2139,215.8438 L133.4795,215.8438 L133.4795,218 Z " fill="#008B45"/><text fill="#008B45" font-family="sans-serif" font-size="14" lengthAdjust="spacing" textLength="45.9238" x="149.8701" y="216.8467">Отзыв</text><line style="stroke:#B36C8F;stroke-width:0.5;" x1="81.5" x2="231.6641" y1="228" y2="228"/><ellipse cx="91.5" cy="241.6484" fill="#008B45" rx="3" ry="3" style="stroke:#B36C8F;stroke-width:1.0;"/><text fill="#008B45" font-family="sans-serif" font-size="14" lengthAdjust="spacing" textLength="73.1924" x="100.5" y="244.9951">id: int [PK]</text><line style="stroke:#B36C8F;stroke-width:1.0;" x1="81.5" x2="231.6641" y1="252.2969" y2="252.2969"/><text fill="#008B45" font-family="sans-serif" font-size="14" lengthAdjust="spacing" textLength="116.5459" x="86.5" y="269.292">user_id: int «FK»</text><text fill="#008B45" font-family="sans-serif" font-size="14" lengthAdjust="spacing" textLength="140.1641" x="86.5" y="285.5889">product_id: int «FK»</text><text fill="#008B45" font-family="sans-serif" font-size="14" lengthAdjust="spacing" textLength="68.8926" x="86.5" y="301.8857">rating: int</text><text fill="#008B45" font-family="sans-serif" font-size="14" lengthAdjust="spacing" textLength="115.8691" x="86.5" y="318.1826">comment: string</text><text fill="#008B45" font-family="sans-serif" font-size="14" lengthAdjust="spacing" textLength="72.3037" x="86.5" y="334.4795">date: date</text></g><!--class Admin--><g id="elem_Admin"><rect codeLine="31" fill="none" height="113.1875" id="Admin" rx="2.5" ry="2.5" style="stroke:#B36C8F;stroke-width:0.5;" width="148.0947" x="351.5" y="15"/><ellipse cx="366.5" cy="31" fill="none" rx="11" ry="11" style="stroke:#B36C8F;stroke-width:1.0;"/><path d="M370.6094,37 L362.8906,37 L362.8906,24.6094 L370.6094,24.6094 L370.6094,26.7656 L365.3438,26.7656 L365.3438,29.4375 L370.1094,29.4375 L370.1094,31.5938 L365.3438,31.5938 L365.3438,34.8438 L370.6094,34.8438 L370.6094,37 Z " fill="#008B45"/><text fill="#008B45" font-family="sans-serif" font-size="14" lengthAdjust="spacing" textLength="116.0947" x="380.5" y="35.8467">Администратор</text><line style="stroke:#B36C8F;stroke-width:0.5;" x1="352.5" x2="498.5947" y1="47" y2="47"/><ellipse cx="362.5" cy="60.6484" fill="#008B45" rx="3" ry="3" style="stroke:#B36C8F;stroke-width:1.0;"/><text fill="#008B45" font-family="sans-serif" font-size="14" lengthAdjust="spacing" textLength="73.1924" x="371.5" y="63.9951">id: int [PK]</text><line style="stroke:#B36C8F;stroke-width:1.0;" x1="352.5" x2="498.5947" y1="71.2969" y2="71.2969"/><text fill="#008B45" font-family="sans-serif" font-size="14" lengthAdjust="spacing" textLength="119.5947" x="357.5" y="88.292">username: string</text><text fill="#008B45" font-family="sans-serif" font-size="14" lengthAdjust="spacing" textLength="87.9648" x="357.5" y="104.5889">email: string</text><text fill="#008B45" font-family="sans-serif" font-size="14" lengthAdjust="spacing" textLength="116.0674" x="357.5" y="120.8857">password: string</text></g><!--class Report--><g id="elem_Report"><rect codeLine="39" fill="none" height="145.7813" id="Report" rx="2.5" ry="2.5" style="stroke:#B36C8F;stroke-width:0.5;" width="152.1641" x="308.5" y="196"/><ellipse cx="358.2246" cy="212" fill="none" rx="11" ry="11" style="stroke:#B36C8F;stroke-width:1.0;"/><path d="M362.334,218 L354.6152,218 L354.6152,205.6094 L362.334,205.6094 L362.334,207.7656 L357.0684,207.7656 L357.0684,210.4375 L361.834,210.4375 L361.834,212.5938 L357.0684,212.5938 L357.0684,215.8438 L362.334,215.8438 L362.334,218 Z " fill="#008B45"/><text fill="#008B45" font-family="sans-serif" font-size="14" lengthAdjust="spacing" textLength="44.2148" x="378.7246" y="216.8467">Отчет</text><line style="stroke:#B36C8F;stroke-width:0.5;" x1="309.5" x2="459.6641" y1="228" y2="228"/><ellipse cx="319.5" cy="241.6484" fill="#008B45" rx="3" ry="3" style="stroke:#B36C8F;stroke-width:1.0;"/><text fill="#008B45" font-family="sans-serif" font-size="14" lengthAdjust="spacing" textLength="73.1924" x="328.5" y="244.9951">id: int [PK]</text><line style="stroke:#B36C8F;stroke-width:1.0;" x1="309.5" x2="459.6641" y1="252.2969" y2="252.2969"/><text fill="#008B45" font-family="sans-serif" font-size="14" lengthAdjust="spacing" textLength="129.0625" x="314.5" y="269.292">aver_rating: string</text><text fill="#008B45" font-family="sans-serif" font-size="14" lengthAdjust="spacing" textLength="140.1641" x="314.5" y="285.5889">product_id: int «FK»</text><text fill="#008B45" font-family="sans-serif" font-size="14" lengthAdjust="spacing" textLength="129.876" x="314.5" y="301.8857">admin_id: int «FK»</text><text fill="#008B45" font-family="sans-serif" font-size="14" lengthAdjust="spacing" textLength="127.1963" x="314.5" y="318.1826">description: string</text><text fill="#008B45" font-family="sans-serif" font-size="14" lengthAdjust="spacing" textLength="72.3037" x="314.5" y="334.4795">date: date</text></g><!--link Admin to Report--><g id="link_Admin_Report"><path codeLine="48" d="M406,136.1 C406,157.18 406,155.43 406,177.79 " fill="none" id="Admin-Report" style="stroke:#B36C8F;stroke-width:1.0;"/><line style="stroke:#B36C8F;stroke-width:1.0;" x1="402" x2="410" y1="132.1" y2="132.1"/><line style="stroke:#B36C8F;stroke-width:1.0;" x1="402" x2="410" y1="135.1" y2="135.1"/><line style="stroke:#B36C8F;stroke-width:1.0;" x1="406" x2="406" y1="136.1" y2="128.1"/><line style="stroke:#B36C8F;stroke-width:1.0;" x1="406" x2="412" y1="187.79" y2="195.79"/><line style="stroke:#B36C8F;stroke-width:1.0;" x1="406" x2="400" y1="187.79" y2="195.79"/><line style="stroke:#B36C8F;stroke-width:1.0;" x1="406" x2="406" y1="187.79" y2="195.79"/><ellipse cx="406" cy="181.79" fill="none" rx="4" ry="4" style="stroke:#B36C8F;stroke-width:1.0;"/><text fill="#008B45" font-family="sans-serif" font-size="13" lengthAdjust="spacing" textLength="54.5391" x="351" y="158.0169">создает</text></g><!--link User to Review--><g id="link_User_Review"><path codeLine="49" d="M111.25,144.17 C111.25,163.29 111.25,158.36 111.25,177.98 " fill="none" id="User-Review" style="stroke:#B36C8F;stroke-width:1.0;"/><line style="stroke:#B36C8F;stroke-width:1.0;" x1="107.25" x2="115.25" y1="140.17" y2="140.17"/><line style="stroke:#B36C8F;stroke-width:1.0;" x1="107.25" x2="115.25" y1="143.17" y2="143.17"/><line style="stroke:#B36C8F;stroke-width:1.0;" x1="111.25" x2="111.25" y1="144.17" y2="136.17"/><line style="stroke:#B36C8F;stroke-width:1.0;" x1="111.25" x2="117.25" y1="187.98" y2="195.98"/><line style="stroke:#B36C8F;stroke-width:1.0;" x1="111.25" x2="105.25" y1="187.98" y2="195.98"/><line style="stroke:#B36C8F;stroke-width:1.0;" x1="111.25" x2="111.25" y1="187.98" y2="195.98"/><ellipse cx="111.25" cy="181.98" fill="none" rx="4" ry="4" style="stroke:#B36C8F;stroke-width:1.0;"/><text fill="#008B45" font-family="sans-serif" font-size="13" lengthAdjust="spacing" textLength="44.4146" x="66.25" y="162.1369">пишет</text></g><!--link Product to Review--><g id="link_Product_Review"><path codeLine="50" d="M204.75,136.1 C204.75,157.18 204.75,155.43 204.75,177.79 " fill="none" id="Product-Review" style="stroke:#B36C8F;stroke-width:1.0;"/><line style="stroke:#B36C8F;stroke-width:1.0;" x1="200.75" x2="208.75" y1="132.1" y2="132.1"/><line style="stroke:#B36C8F;stroke-width:1.0;" x1="200.75" x2="208.75" y1="135.1" y2="135.1"/><line style="stroke:#B36C8F;stroke-width:1.0;" x1="204.75" x2="204.75" y1="136.1" y2="128.1"/><line style="stroke:#B36C8F;stroke-width:1.0;" x1="204.75" x2="210.75" y1="187.79" y2="195.79"/><line style="stroke:#B36C8F;stroke-width:1.0;" x1="204.75" x2="198.75" y1="187.79" y2="195.79"/><line style="stroke:#B36C8F;stroke-width:1.0;" x1="204.75" x2="204.75" y1="187.79" y2="195.79"/><ellipse cx="204.75" cy="181.79" fill="none" rx="4" ry="4" style="stroke:#B36C8F;stroke-width:1.0;"/><text fill="#008B45" font-family="sans-serif" font-size="13" lengthAdjust="spacing" textLength="41.8247" x="162.75" y="158.0169">имеет</text></g><!--link Product to Report--><g id="link_Product_Report"><path codeLine="51" d="M312.25,136.1 C312.25,157.18 312.25,155.43 312.25,177.79 " fill="none" id="Product-Report" style="stroke:#B36C8F;stroke-width:1.0;"/><line style="stroke:#B36C8F;stroke-width:1.0;" x1="308.25" x2="316.25" y1="132.1" y2="132.1"/><line style="stroke:#B36C8F;stroke-width:1.0;" x1="308.25" x2="316.25" y1="135.1" y2="135.1"/><line style="stroke:#B36C8F;stroke-width:1.0;" x1="312.25" x2="312.25" y1="136.1" y2="128.1"/><line style="stroke:#B36C8F;stroke-width:1.0;" x1="312.25" x2="318.25" y1="187.79" y2="195.79"/><line style="stroke:#B36C8F;stroke-width:1.0;" x1="312.25" x2="306.25" y1="187.79" y2="195.79"/><line style="stroke:#B36C8F;stroke-width:1.0;" x1="312.25" x2="312.25" y1="187.79" y2="195.79"/><ellipse cx="312.25" cy="181.79" fill="none" rx="4" ry="4" style="stroke:#B36C8F;stroke-width:1.0;"/><text fill="#008B45" font-family="sans-serif" font-size="13" lengthAdjust="spacing" textLength="94.834" x="217.25" y="158.0169">содержится в</text></g><!--SRC=[jPBFIWCn4CRl-nI35q7e2oobuCLBBrBm92An6sjmDrcIjAMeKDU3We8-WRv2AQqj_gclC7aZPxEjTBL5B-vXGsQ6p6- -RpQ1TPI88DNgAEQ9WQwm9y1aA-OHDBNg6ZZct0RcLCYKQPP0B2ItlPI3qlP41G6NLjWURE0Jpl3LtU64pY4EN8RZ_Bu1pC2UuHhE0g1l2qGKWf0MzdVh1pvKgVYZJKMI9Jm4OxMGBH_a2HDnAP8oOxfAHwLWJkHV3IwMaLoVO4Rk2bzSva5sjOhQJVihom-EY9kc5gaLIfRYJMPvI-dULt2v_oE9C76tEFIz6xmZUFTFCXmkajNgJhrMA-Okq5UbDBFKkfZVGwaa8OZo00GQ-dy9yG57-8PJVCUfktGP2POxDtDzZxmT9KB-ct7Vf7BNE9xRrE0fhTUlZLc7f5eClznflLGidsXLOft19TqAFSxFAnLrDeSCmLtIaar8nq7E7_XT_oh9BGy1FqZU6vzURE3tYYdPC5vTiTHcH1LzVARNChBh7d3u2G00]--></g></svg>