<?xml version="1.0" encoding="UTF-8"?>
<?xml-stylesheet href="https://cdnjs.cloudflare.com/ajax/libs/font-awesome/6.6.0/css/all.min.css" type="text/css"?>
<svg aria-roledescription="er" role="graphics-document document" viewBox="0 0 585.566650390625 441" style="max-width: 100%;" xmlns="http://www.w3.org/2000/svg" width="100%" id="graph-div" height="100%" xmlns:xlink="http://www.w3.org/1999/xlink"><style>#graph-div{font-family:"trebuchet ms",verdana,arial,sans-serif;font-size:16px;fill:#008B45;}#graph-div .error-icon{fill:#008B45;}#graph-div .error-text{fill:#008B45;stroke:#008B45;}#graph-div .edge-thickness-normal{stroke-width:1px;}#graph-div .edge-thickness-thick{stroke-width:3.5px;}#graph-div .edge-pattern-solid{stroke-dasharray:0;}#graph-div .edge-thickness-invisible{stroke-width:0;fill:none;}#graph-div .edge-pattern-dashed{stroke-dasharray:3;}#graph-div .edge-pattern-dotted{stroke-dasharray:2;}#graph-div .marker{fill:#008B45;stroke:#008B45;}#graph-div .marker.cross{stroke:#008B45;}#graph-div svg{font-family:"trebuchet ms",verdana,arial,sans-serif;font-size:16px;}#graph-div p{margin:0;}#graph-div .entityBox{fill:none;stroke:#B36C8F;}#graph-div .attributeBoxOdd{fill:none;stroke:#B36C8F;}#graph-div .attributeBoxEven{fill:none;stroke:#B36C8F;}#graph-div .relationshipLabelBox{fill:none;opacity:0.7;background-color:none;}#graph-div .relationshipLabelBox rect{opacity:0.5;}#graph-div .relationshipLine{stroke:#008B45;}#graph-div .entityTitleText{text-anchor:middle;font-size:18px;fill:#008B45;}#graph-div #MD_PARENT_START{fill:none;stroke:#008B45!important;stroke-width:1;}#graph-div #MD_PARENT_END{fill:none;stroke:#008B45!important;stroke-width:1;}#graph-div :root{--mermaid-font-family:"trebuchet ms",verdana,arial,sans-serif;}</style><g></g><defs><marker orient="auto" markerHeight="240" markerWidth="190" refY="7" refX="0" id="MD_PARENT_START"><path d="M 18,7 L9,13 L1,7 L9,1 Z"></path></marker></defs><defs><marker orient="auto" markerHeight="28" markerWidth="20" refY="7" refX="19" id="MD_PARENT_END"><path d="M 18,7 L9,13 L1,7 L9,1 Z"></path></marker></defs><defs><marker orient="auto" markerHeight="18" markerWidth="18" refY="9" refX="0" id="ONLY_ONE_START"><path d="M9,0 L9,18 M15,0 L15,18" fill="none" stroke="#008B45"></path></marker></defs><defs><marker orient="auto" markerHeight="18" markerWidth="18" refY="9" refX="18" id="ONLY_ONE_END"><path d="M3,0 L3,18 M9,0 L9,18" fill="none" stroke="#008B45"></path></marker></defs><defs><marker orient="auto" markerHeight="18" markerWidth="30" refY="9" refX="0" id="ZERO_OR_ONE_START"><circle r="6" cy="9" cx="21" fill="none" stroke="#008B45"></circle><path d="M9,0 L9,18" fill="none" stroke="#008B45"></path></marker></defs><defs><marker orient="auto" markerHeight="18" markerWidth="30" refY="9" refX="30" id="ZERO_OR_ONE_END"><circle r="6" cy="9" cx="9" fill="none" stroke="#008B45"></circle><path d="M21,0 L21,18" fill="none" stroke="#008B45"></path></marker></defs><defs><marker orient="auto" markerHeight="36" markerWidth="45" refY="18" refX="18" id="ONE_OR_MORE_START"><path d="M0,18 Q 18,0 36,18 Q 18,36 0,18 M42,9 L42,27" fill="none" stroke="#008B45"></path></marker></defs><defs><marker orient="auto" markerHeight="36" markerWidth="45" refY="18" refX="27" id="ONE_OR_MORE_END"><path d="M3,9 L3,27 M9,18 Q27,0 45,18 Q27,36 9,18" fill="none" stroke="#008B45"></path></marker></defs><defs><marker orient="auto" markerHeight="36" markerWidth="57" refY="18" refX="18" id="ZERO_OR_MORE_START"><circle r="6" cy="18" cx="48" fill="none" stroke="#008B45"></circle><path d="M0,18 Q18,0 36,18 Q18,36 0,18" fill="none" stroke="#008B45"></path></marker></defs><defs><marker orient="auto" markerHeight="36" markerWidth="57" refY="18" refX="39" id="ZERO_OR_MORE_END"><circle r="6" cy="18" cx="9" fill="none" stroke="#008B45"></circle><path d="M21,18 Q39,0 57,18 Q39,36 21,18" fill="none" stroke="#008B45"></path></marker></defs><path marker-start="url(#ONLY_ONE_START)" marker-end="url(#ZERO_OR_MORE_END)" style="stroke: #008B45; fill: none;" d="M508.633,147.5L508.633,157.75C508.633,168,508.633,188.5,505.453,207.083C502.272,225.667,495.911,242.333,492.73,250.667L489.549,259" class="er relationshipLine"></path><path marker-start="url(#ONLY_ONE_START)" marker-end="url(#ZERO_OR_MORE_END)" style="stroke: #008B45; fill: none;" d="M76.933,159L76.933,167.333C76.933,175.667,76.933,192.333,80.114,209C83.295,225.667,89.656,242.333,92.837,250.667L96.017,259" class="er relationshipLine"></path><path marker-start="url(#ONLY_ONE_START)" marker-end="url(#ZERO_OR_MORE_END)" style="stroke: #008B45; fill: none;" d="M264.669,147.5L259.701,157.75C254.732,168,244.795,188.5,232.839,207.231C220.883,225.963,206.908,242.926,199.921,251.407L192.933,259.889" class="er relationshipLine"></path><path marker-start="url(#ONLY_ONE_START)" marker-end="url(#ZERO_OR_MORE_END)" style="stroke: #008B45; fill: none;" d="M320.898,147.5L325.866,157.75C330.834,168,340.771,188.5,352.605,207.083C364.439,225.667,378.17,242.333,385.036,250.667L391.901,259" class="er relationshipLine"></path><g transform="translate(20,20 )" id="entity-User-818c511a-4a32-5484-ba70-875d765a9175"><rect height="139" width="113.86666488647461" y="0" x="0" class="er entityBox"></rect><text transform="translate(56.933332443237305,12)" style="dominant-baseline: middle; text-anchor: middle; font-size: 12px;" y="0" x="0" id="text-entity-User-818c511a-4a32-5484-ba70-875d765a9175" class="er entityLabel">User</text><rect height="23" width="55.33333206176758" y="24" x="0" class="er attributeBoxOdd"></rect><text transform="translate(5,35.5)" style="dominant-baseline: middle; font-size: 10.2px;" y="0" x="0" id="text-entity-User-818c511a-4a32-5484-ba70-875d765a9175-attr-1-type" class="er entityLabel">id</text><rect height="23" width="34.933332443237305" y="24" x="55.33333206176758" class="er attributeBoxOdd"></rect><text transform="translate(60.33333206176758,35.5)" style="dominant-baseline: middle; font-size: 10.2px;" y="0" x="0" id="text-entity-User-818c511a-4a32-5484-ba70-875d765a9175-attr-1-name" class="er entityLabel">int</text><rect height="23" width="23.600000381469727" y="24" x="90.26666450500488" class="er attributeBoxOdd"></rect><text transform="translate(95.26666450500488,35.5)" style="dominant-baseline: middle; font-size: 10.2px;" y="0" x="0" id="text-entity-User-818c511a-4a32-5484-ba70-875d765a9175-attr-1-key" class="er entityLabel">PK</text><rect height="23" width="55.33333206176758" y="47" x="0" class="er attributeBoxEven"></rect><text transform="translate(5,58.5)" style="dominant-baseline: middle; font-size: 10.2px;" y="0" x="0" id="text-entity-User-818c511a-4a32-5484-ba70-875d765a9175-attr-2-type" class="er entityLabel">username</text><rect height="23" width="34.933332443237305" y="47" x="55.33333206176758" class="er attributeBoxEven"></rect><text transform="translate(60.33333206176758,58.5)" style="dominant-baseline: middle; font-size: 10.2px;" y="0" x="0" id="text-entity-User-818c511a-4a32-5484-ba70-875d765a9175-attr-2-name" class="er entityLabel">string</text><rect height="23" width="23.600000381469727" y="47" x="90.26666450500488" class="er attributeBoxEven"></rect><text transform="translate(95.26666450500488,58.5)" style="dominant-baseline: middle; font-size: 10.2px;" y="0" x="0" id="text-entity-User-818c511a-4a32-5484-ba70-875d765a9175-attr-2-key" class="er entityLabel"></text><rect height="23" width="55.33333206176758" y="70" x="0" class="er attributeBoxOdd"></rect><text transform="translate(5,81.5)" style="dominant-baseline: middle; font-size: 10.2px;" y="0" x="0" id="text-entity-User-818c511a-4a32-5484-ba70-875d765a9175-attr-3-type" class="er entityLabel">email</text><rect height="23" width="34.933332443237305" y="70" x="55.33333206176758" class="er attributeBoxOdd"></rect><text transform="translate(60.33333206176758,81.5)" style="dominant-baseline: middle; font-size: 10.2px;" y="0" x="0" id="text-entity-User-818c511a-4a32-5484-ba70-875d765a9175-attr-3-name" class="er entityLabel">string</text><rect height="23" width="23.600000381469727" y="70" x="90.26666450500488" class="er attributeBoxOdd"></rect><text transform="translate(95.26666450500488,81.5)" style="dominant-baseline: middle; font-size: 10.2px;" y="0" x="0" id="text-entity-User-818c511a-4a32-5484-ba70-875d765a9175-attr-3-key" class="er entityLabel"></text><rect height="23" width="55.33333206176758" y="93" x="0" class="er attributeBoxEven"></rect><text transform="translate(5,104.5)" style="dominant-baseline: middle; font-size: 10.2px;" y="0" x="0" id="text-entity-User-818c511a-4a32-5484-ba70-875d765a9175-attr-4-type" class="er entityLabel">password</text><rect height="23" width="34.933332443237305" y="93" x="55.33333206176758" class="er attributeBoxEven"></rect><text transform="translate(60.33333206176758,104.5)" style="dominant-baseline: middle; font-size: 10.2px;" y="0" x="0" id="text-entity-User-818c511a-4a32-5484-ba70-875d765a9175-attr-4-name" class="er entityLabel">string</text><rect height="23" width="23.600000381469727" y="93" x="90.26666450500488" class="er attributeBoxEven"></rect><text transform="translate(95.26666450500488,104.5)" style="dominant-baseline: middle; font-size: 10.2px;" y="0" x="0" id="text-entity-User-818c511a-4a32-5484-ba70-875d765a9175-attr-4-key" class="er entityLabel"></text><rect height="23" width="55.33333206176758" y="116" x="0" class="er attributeBoxOdd"></rect><text transform="translate(5,127.5)" style="dominant-baseline: middle; font-size: 10.2px;" y="0" x="0" id="text-entity-User-818c511a-4a32-5484-ba70-875d765a9175-attr-5-type" class="er entityLabel">type</text><rect height="23" width="34.933332443237305" y="116" x="55.33333206176758" class="er attributeBoxOdd"></rect><text transform="translate(60.33333206176758,127.5)" style="dominant-baseline: middle; font-size: 10.2px;" y="0" x="0" id="text-entity-User-818c511a-4a32-5484-ba70-875d765a9175-attr-5-name" class="er entityLabel">int</text><rect height="23" width="23.600000381469727" y="116" x="90.26666450500488" class="er attributeBoxOdd"></rect><text transform="translate(95.26666450500488,127.5)" style="dominant-baseline: middle; font-size: 10.2px;" y="0" x="0" id="text-entity-User-818c511a-4a32-5484-ba70-875d765a9175-attr-5-key" class="er entityLabel"></text></g><g transform="translate(233.86666870117188,31.5 )" id="entity-Product-8913f459-c6e1-5923-8b2e-55129fac4b99"><rect height="116" width="117.83333206176758" y="0" x="0" class="er entityBox"></rect><text transform="translate(58.91666603088379,12)" style="dominant-baseline: middle; text-anchor: middle; font-size: 12px;" y="0" x="0" id="text-entity-Product-8913f459-c6e1-5923-8b2e-55129fac4b99" class="er entityLabel">Product</text><rect height="23" width="59.29999923706055" y="24" x="0" class="er attributeBoxOdd"></rect><text transform="translate(5,35.5)" style="dominant-baseline: middle; font-size: 10.2px;" y="0" x="0" id="text-entity-Product-8913f459-c6e1-5923-8b2e-55129fac4b99-attr-1-type" class="er entityLabel">id</text><rect height="23" width="34.933332443237305" y="24" x="59.29999923706055" class="er attributeBoxOdd"></rect><text transform="translate(64.29999923706055,35.5)" style="dominant-baseline: middle; font-size: 10.2px;" y="0" x="0" id="text-entity-Product-8913f459-c6e1-5923-8b2e-55129fac4b99-attr-1-name" class="er entityLabel">int</text><rect height="23" width="23.600000381469727" y="24" x="94.23333168029785" class="er attributeBoxOdd"></rect><text transform="translate(99.23333168029785,35.5)" style="dominant-baseline: middle; font-size: 10.2px;" y="0" x="0" id="text-entity-Product-8913f459-c6e1-5923-8b2e-55129fac4b99-attr-1-key" class="er entityLabel">PK</text><rect height="23" width="59.29999923706055" y="47" x="0" class="er attributeBoxEven"></rect><text transform="translate(5,58.5)" style="dominant-baseline: middle; font-size: 10.2px;" y="0" x="0" id="text-entity-Product-8913f459-c6e1-5923-8b2e-55129fac4b99-attr-2-type" class="er entityLabel">name</text><rect height="23" width="34.933332443237305" y="47" x="59.29999923706055" class="er attributeBoxEven"></rect><text transform="translate(64.29999923706055,58.5)" style="dominant-baseline: middle; font-size: 10.2px;" y="0" x="0" id="text-entity-Product-8913f459-c6e1-5923-8b2e-55129fac4b99-attr-2-name" class="er entityLabel">string</text><rect height="23" width="23.600000381469727" y="47" x="94.23333168029785" class="er attributeBoxEven"></rect><text transform="translate(99.23333168029785,58.5)" style="dominant-baseline: middle; font-size: 10.2px;" y="0" x="0" id="text-entity-Product-8913f459-c6e1-5923-8b2e-55129fac4b99-attr-2-key" class="er entityLabel"></text><rect height="23" width="59.29999923706055" y="70" x="0" class="er attributeBoxOdd"></rect><text transform="translate(5,81.5)" style="dominant-baseline: middle; font-size: 10.2px;" y="0" x="0" id="text-entity-Product-8913f459-c6e1-5923-8b2e-55129fac4b99-attr-3-type" class="er entityLabel">description</text><rect height="23" width="34.933332443237305" y="70" x="59.29999923706055" class="er attributeBoxOdd"></rect><text transform="translate(64.29999923706055,81.5)" style="dominant-baseline: middle; font-size: 10.2px;" y="0" x="0" id="text-entity-Product-8913f459-c6e1-5923-8b2e-55129fac4b99-attr-3-name" class="er entityLabel">string</text><rect height="23" width="23.600000381469727" y="70" x="94.23333168029785" class="er attributeBoxOdd"></rect><text transform="translate(99.23333168029785,81.5)" style="dominant-baseline: middle; font-size: 10.2px;" y="0" x="0" id="text-entity-Product-8913f459-c6e1-5923-8b2e-55129fac4b99-attr-3-key" class="er entityLabel"></text><rect height="23" width="59.29999923706055" y="93" x="0" class="er attributeBoxEven"></rect><text transform="translate(5,104.5)" style="dominant-baseline: middle; font-size: 10.2px;" y="0" x="0" id="text-entity-Product-8913f459-c6e1-5923-8b2e-55129fac4b99-attr-4-type" class="er entityLabel">category</text><rect height="23" width="34.933332443237305" y="93" x="59.29999923706055" class="er attributeBoxEven"></rect><text transform="translate(64.29999923706055,104.5)" style="dominant-baseline: middle; font-size: 10.2px;" y="0" x="0" id="text-entity-Product-8913f459-c6e1-5923-8b2e-55129fac4b99-attr-4-name" class="er entityLabel">string</text><rect height="23" width="23.600000381469727" y="93" x="94.23333168029785" class="er attributeBoxEven"></rect><text transform="translate(99.23333168029785,104.5)" style="dominant-baseline: middle; font-size: 10.2px;" y="0" x="0" id="text-entity-Product-8913f459-c6e1-5923-8b2e-55129fac4b99-attr-4-key" class="er entityLabel"></text></g><g transform="translate(60.93333435058594,259 )" id="entity-Review-77c92a79-8cff-50c0-9604-f9135763cccd"><rect height="162" width="131.99999809265137" y="0" x="0" class="er entityBox"></rect><text transform="translate(65.99999904632568,12)" style="dominant-baseline: middle; text-anchor: middle; font-size: 12px;" y="0" x="0" id="text-entity-Review-77c92a79-8cff-50c0-9604-f9135763cccd" class="er entityLabel">Review</text><rect height="23" width="57.599998474121094" y="24" x="0" class="er attributeBoxOdd"></rect><text transform="translate(5,35.5)" style="dominant-baseline: middle; font-size: 10.2px;" y="0" x="0" id="text-entity-Review-77c92a79-8cff-50c0-9604-f9135763cccd-attr-1-type" class="er entityLabel">id</text><rect height="23" width="34.933332443237305" y="24" x="57.599998474121094" class="er attributeBoxOdd"></rect><text transform="translate(62.599998474121094,35.5)" style="dominant-baseline: middle; font-size: 10.2px;" y="0" x="0" id="text-entity-Review-77c92a79-8cff-50c0-9604-f9135763cccd-attr-1-name" class="er entityLabel">int</text><rect height="23" width="39.46666717529297" y="24" x="92.5333309173584" class="er attributeBoxOdd"></rect><text transform="translate(97.5333309173584,35.5)" style="dominant-baseline: middle; font-size: 10.2px;" y="0" x="0" id="text-entity-Review-77c92a79-8cff-50c0-9604-f9135763cccd-attr-1-key" class="er entityLabel">PK</text><rect height="23" width="57.599998474121094" y="47" x="0" class="er attributeBoxEven"></rect><text transform="translate(5,58.5)" style="dominant-baseline: middle; font-size: 10.2px;" y="0" x="0" id="text-entity-Review-77c92a79-8cff-50c0-9604-f9135763cccd-attr-2-type" class="er entityLabel">user_id</text><rect height="23" width="34.933332443237305" y="47" x="57.599998474121094" class="er attributeBoxEven"></rect><text transform="translate(62.599998474121094,58.5)" style="dominant-baseline: middle; font-size: 10.2px;" y="0" x="0" id="text-entity-Review-77c92a79-8cff-50c0-9604-f9135763cccd-attr-2-name" class="er entityLabel">int</text><rect height="23" width="39.46666717529297" y="47" x="92.5333309173584" class="er attributeBoxEven"></rect><text transform="translate(97.5333309173584,58.5)" style="dominant-baseline: middle; font-size: 10.2px;" y="0" x="0" id="text-entity-Review-77c92a79-8cff-50c0-9604-f9135763cccd-attr-2-key" class="er entityLabel">PK,FK</text><rect height="23" width="57.599998474121094" y="70" x="0" class="er attributeBoxOdd"></rect><text transform="translate(5,81.5)" style="dominant-baseline: middle; font-size: 10.2px;" y="0" x="0" id="text-entity-Review-77c92a79-8cff-50c0-9604-f9135763cccd-attr-3-type" class="er entityLabel">product_id</text><rect height="23" width="34.933332443237305" y="70" x="57.599998474121094" class="er attributeBoxOdd"></rect><text transform="translate(62.599998474121094,81.5)" style="dominant-baseline: middle; font-size: 10.2px;" y="0" x="0" id="text-entity-Review-77c92a79-8cff-50c0-9604-f9135763cccd-attr-3-name" class="er entityLabel">int</text><rect height="23" width="39.46666717529297" y="70" x="92.5333309173584" class="er attributeBoxOdd"></rect><text transform="translate(97.5333309173584,81.5)" style="dominant-baseline: middle; font-size: 10.2px;" y="0" x="0" id="text-entity-Review-77c92a79-8cff-50c0-9604-f9135763cccd-attr-3-key" class="er entityLabel">PK,FK</text><rect height="23" width="57.599998474121094" y="93" x="0" class="er attributeBoxEven"></rect><text transform="translate(5,104.5)" style="dominant-baseline: middle; font-size: 10.2px;" y="0" x="0" id="text-entity-Review-77c92a79-8cff-50c0-9604-f9135763cccd-attr-4-type" class="er entityLabel">rating</text><rect height="23" width="34.933332443237305" y="93" x="57.599998474121094" class="er attributeBoxEven"></rect><text transform="translate(62.599998474121094,104.5)" style="dominant-baseline: middle; font-size: 10.2px;" y="0" x="0" id="text-entity-Review-77c92a79-8cff-50c0-9604-f9135763cccd-attr-4-name" class="er entityLabel">int</text><rect height="23" width="39.46666717529297" y="93" x="92.5333309173584" class="er attributeBoxEven"></rect><text transform="translate(97.5333309173584,104.5)" style="dominant-baseline: middle; font-size: 10.2px;" y="0" x="0" id="text-entity-Review-77c92a79-8cff-50c0-9604-f9135763cccd-attr-4-key" class="er entityLabel"></text><rect height="23" width="57.599998474121094" y="116" x="0" class="er attributeBoxOdd"></rect><text transform="translate(5,127.5)" style="dominant-baseline: middle; font-size: 10.2px;" y="0" x="0" id="text-entity-Review-77c92a79-8cff-50c0-9604-f9135763cccd-attr-5-type" class="er entityLabel">comment</text><rect height="23" width="34.933332443237305" y="116" x="57.599998474121094" class="er attributeBoxOdd"></rect><text transform="translate(62.599998474121094,127.5)" style="dominant-baseline: middle; font-size: 10.2px;" y="0" x="0" id="text-entity-Review-77c92a79-8cff-50c0-9604-f9135763cccd-attr-5-name" class="er entityLabel">string</text><rect height="23" width="39.46666717529297" y="116" x="92.5333309173584" class="er attributeBoxOdd"></rect><text transform="translate(97.5333309173584,127.5)" style="dominant-baseline: middle; font-size: 10.2px;" y="0" x="0" id="text-entity-Review-77c92a79-8cff-50c0-9604-f9135763cccd-attr-5-key" class="er entityLabel"></text><rect height="23" width="57.599998474121094" y="139" x="0" class="er attributeBoxEven"></rect><text transform="translate(5,150.5)" style="dominant-baseline: middle; font-size: 10.2px;" y="0" x="0" id="text-entity-Review-77c92a79-8cff-50c0-9604-f9135763cccd-attr-6-type" class="er entityLabel">date</text><rect height="23" width="34.933332443237305" y="139" x="57.599998474121094" class="er attributeBoxEven"></rect><text transform="translate(62.599998474121094,150.5)" style="dominant-baseline: middle; font-size: 10.2px;" y="0" x="0" id="text-entity-Review-77c92a79-8cff-50c0-9604-f9135763cccd-attr-6-name" class="er entityLabel">date</text><rect height="23" width="39.46666717529297" y="139" x="92.5333309173584" class="er attributeBoxEven"></rect><text transform="translate(97.5333309173584,150.5)" style="dominant-baseline: middle; font-size: 10.2px;" y="0" x="0" id="text-entity-Review-77c92a79-8cff-50c0-9604-f9135763cccd-attr-6-key" class="er entityLabel"></text></g><g transform="translate(451.6999969482422,31.5 )" id="entity-Admin-ac960f68-b1b2-5358-9d08-eeaa5108f92f"><rect height="116" width="113.86666488647461" y="0" x="0" class="er entityBox"></rect><text transform="translate(56.933332443237305,12)" style="dominant-baseline: middle; text-anchor: middle; font-size: 12px;" y="0" x="0" id="text-entity-Admin-ac960f68-b1b2-5358-9d08-eeaa5108f92f" class="er entityLabel">Admin</text><rect height="23" width="55.33333206176758" y="24" x="0" class="er attributeBoxOdd"></rect><text transform="translate(5,35.5)" style="dominant-baseline: middle; font-size: 10.2px;" y="0" x="0" id="text-entity-Admin-ac960f68-b1b2-5358-9d08-eeaa5108f92f-attr-1-type" class="er entityLabel">id</text><rect height="23" width="34.933332443237305" y="24" x="55.33333206176758" class="er attributeBoxOdd"></rect><text transform="translate(60.33333206176758,35.5)" style="dominant-baseline: middle; font-size: 10.2px;" y="0" x="0" id="text-entity-Admin-ac960f68-b1b2-5358-9d08-eeaa5108f92f-attr-1-name" class="er entityLabel">int</text><rect height="23" width="23.600000381469727" y="24" x="90.26666450500488" class="er attributeBoxOdd"></rect><text transform="translate(95.26666450500488,35.5)" style="dominant-baseline: middle; font-size: 10.2px;" y="0" x="0" id="text-entity-Admin-ac960f68-b1b2-5358-9d08-eeaa5108f92f-attr-1-key" class="er entityLabel">PK</text><rect height="23" width="55.33333206176758" y="47" x="0" class="er attributeBoxEven"></rect><text transform="translate(5,58.5)" style="dominant-baseline: middle; font-size: 10.2px;" y="0" x="0" id="text-entity-Admin-ac960f68-b1b2-5358-9d08-eeaa5108f92f-attr-2-type" class="er entityLabel">username</text><rect height="23" width="34.933332443237305" y="47" x="55.33333206176758" class="er attributeBoxEven"></rect><text transform="translate(60.33333206176758,58.5)" style="dominant-baseline: middle; font-size: 10.2px;" y="0" x="0" id="text-entity-Admin-ac960f68-b1b2-5358-9d08-eeaa5108f92f-attr-2-name" class="er entityLabel">string</text><rect height="23" width="23.600000381469727" y="47" x="90.26666450500488" class="er attributeBoxEven"></rect><text transform="translate(95.26666450500488,58.5)" style="dominant-baseline: middle; font-size: 10.2px;" y="0" x="0" id="text-entity-Admin-ac960f68-b1b2-5358-9d08-eeaa5108f92f-attr-2-key" class="er entityLabel"></text><rect height="23" width="55.33333206176758" y="70" x="0" class="er attributeBoxOdd"></rect><text transform="translate(5,81.5)" style="dominant-baseline: middle; font-size: 10.2px;" y="0" x="0" id="text-entity-Admin-ac960f68-b1b2-5358-9d08-eeaa5108f92f-attr-3-type" class="er entityLabel">email</text><rect height="23" width="34.933332443237305" y="70" x="55.33333206176758" class="er attributeBoxOdd"></rect><text transform="translate(60.33333206176758,81.5)" style="dominant-baseline: middle; font-size: 10.2px;" y="0" x="0" id="text-entity-Admin-ac960f68-b1b2-5358-9d08-eeaa5108f92f-attr-3-name" class="er entityLabel">string</text><rect height="23" width="23.600000381469727" y="70" x="90.26666450500488" class="er attributeBoxOdd"></rect><text transform="translate(95.26666450500488,81.5)" style="dominant-baseline: middle; font-size: 10.2px;" y="0" x="0" id="text-entity-Admin-ac960f68-b1b2-5358-9d08-eeaa5108f92f-attr-3-key" class="er entityLabel"></text><rect height="23" width="55.33333206176758" y="93" x="0" class="er attributeBoxEven"></rect><text transform="translate(5,104.5)" style="dominant-baseline: middle; font-size: 10.2px;" y="0" x="0" id="text-entity-Admin-ac960f68-b1b2-5358-9d08-eeaa5108f92f-attr-4-type" class="er entityLabel">password</text><rect height="23" width="34.933332443237305" y="93" x="55.33333206176758" class="er attributeBoxEven"></rect><text transform="translate(60.33333206176758,104.5)" style="dominant-baseline: middle; font-size: 10.2px;" y="0" x="0" id="text-entity-Admin-ac960f68-b1b2-5358-9d08-eeaa5108f92f-attr-4-name" class="er entityLabel">string</text><rect height="23" width="23.600000381469727" y="93" x="90.26666450500488" class="er attributeBoxEven"></rect><text transform="translate(95.26666450500488,104.5)" style="dominant-baseline: middle; font-size: 10.2px;" y="0" x="0" id="text-entity-Admin-ac960f68-b1b2-5358-9d08-eeaa5108f92f-attr-4-key" class="er entityLabel"></text></g><g transform="translate(390.93333435058594,259 )" id="entity-Report-5e1311b4-907f-59b2-bb53-aa12460d6f9a"><rect height="162" width="135.39999961853027" y="0" x="0" class="er entityBox"></rect><text transform="translate(67.69999980926514,12)" style="dominant-baseline: middle; text-anchor: middle; font-size: 12px;" y="0" x="0" id="text-entity-Report-5e1311b4-907f-59b2-bb53-aa12460d6f9a" class="er entityLabel">Report</text><rect height="23" width="61" y="24" x="0" class="er attributeBoxOdd"></rect><text transform="translate(5,35.5)" style="dominant-baseline: middle; font-size: 10.2px;" y="0" x="0" id="text-entity-Report-5e1311b4-907f-59b2-bb53-aa12460d6f9a-attr-1-type" class="er entityLabel">id</text><rect height="23" width="34.933332443237305" y="24" x="61" class="er attributeBoxOdd"></rect><text transform="translate(66,35.5)" style="dominant-baseline: middle; font-size: 10.2px;" y="0" x="0" id="text-entity-Report-5e1311b4-907f-59b2-bb53-aa12460d6f9a-attr-1-name" class="er entityLabel">int</text><rect height="23" width="39.46666717529297" y="24" x="95.9333324432373" class="er attributeBoxOdd"></rect><text transform="translate(100.9333324432373,35.5)" style="dominant-baseline: middle; font-size: 10.2px;" y="0" x="0" id="text-entity-Report-5e1311b4-907f-59b2-bb53-aa12460d6f9a-attr-1-key" class="er entityLabel">PK</text><rect height="23" width="61" y="47" x="0" class="er attributeBoxEven"></rect><text transform="translate(5,58.5)" style="dominant-baseline: middle; font-size: 10.2px;" y="0" x="0" id="text-entity-Report-5e1311b4-907f-59b2-bb53-aa12460d6f9a-attr-2-type" class="er entityLabel">aver_rating</text><rect height="23" width="34.933332443237305" y="47" x="61" class="er attributeBoxEven"></rect><text transform="translate(66,58.5)" style="dominant-baseline: middle; font-size: 10.2px;" y="0" x="0" id="text-entity-Report-5e1311b4-907f-59b2-bb53-aa12460d6f9a-attr-2-name" class="er entityLabel">string</text><rect height="23" width="39.46666717529297" y="47" x="95.9333324432373" class="er attributeBoxEven"></rect><text transform="translate(100.9333324432373,58.5)" style="dominant-baseline: middle; font-size: 10.2px;" y="0" x="0" id="text-entity-Report-5e1311b4-907f-59b2-bb53-aa12460d6f9a-attr-2-key" class="er entityLabel"></text><rect height="23" width="61" y="70" x="0" class="er attributeBoxOdd"></rect><text transform="translate(5,81.5)" style="dominant-baseline: middle; font-size: 10.2px;" y="0" x="0" id="text-entity-Report-5e1311b4-907f-59b2-bb53-aa12460d6f9a-attr-3-type" class="er entityLabel">product_id</text><rect height="23" width="34.933332443237305" y="70" x="61" class="er attributeBoxOdd"></rect><text transform="translate(66,81.5)" style="dominant-baseline: middle; font-size: 10.2px;" y="0" x="0" id="text-entity-Report-5e1311b4-907f-59b2-bb53-aa12460d6f9a-attr-3-name" class="er entityLabel">int</text><rect height="23" width="39.46666717529297" y="70" x="95.9333324432373" class="er attributeBoxOdd"></rect><text transform="translate(100.9333324432373,81.5)" style="dominant-baseline: middle; font-size: 10.2px;" y="0" x="0" id="text-entity-Report-5e1311b4-907f-59b2-bb53-aa12460d6f9a-attr-3-key" class="er entityLabel">PK,FK</text><rect height="23" width="61" y="93" x="0" class="er attributeBoxEven"></rect><text transform="translate(5,104.5)" style="dominant-baseline: middle; font-size: 10.2px;" y="0" x="0" id="text-entity-Report-5e1311b4-907f-59b2-bb53-aa12460d6f9a-attr-4-type" class="er entityLabel">admin_id</text><rect height="23" width="34.933332443237305" y="93" x="61" class="er attributeBoxEven"></rect><text transform="translate(66,104.5)" style="dominant-baseline: middle; font-size: 10.2px;" y="0" x="0" id="text-entity-Report-5e1311b4-907f-59b2-bb53-aa12460d6f9a-attr-4-name" class="er entityLabel">int</text><rect height="23" width="39.46666717529297" y="93" x="95.9333324432373" class="er attributeBoxEven"></rect><text transform="translate(100.9333324432373,104.5)" style="dominant-baseline: middle; font-size: 10.2px;" y="0" x="0" id="text-entity-Report-5e1311b4-907f-59b2-bb53-aa12460d6f9a-attr-4-key" class="er entityLabel">PK,FK</text><rect height="23" width="61" y="116" x="0" class="er attributeBoxOdd"></rect><text transform="translate(5,127.5)" style="dominant-baseline: middle; font-size: 10.2px;" y="0" x="0" id="text-entity-Report-5e1311b4-907f-59b2-bb53-aa12460d6f9a-attr-5-type" class="er entityLabel">description</text><rect height="23" width="34.933332443237305" y="116" x="61" class="er attributeBoxOdd"></rect><text transform="translate(66,127.5)" style="dominant-baseline: middle; font-size: 10.2px;" y="0" x="0" id="text-entity-Report-5e1311b4-907f-59b2-bb53-aa12460d6f9a-attr-5-name" class="er entityLabel">string</text><rect height="23" width="39.46666717529297" y="116" x="95.9333324432373" class="er attributeBoxOdd"></rect><text transform="translate(100.9333324432373,127.5)" style="dominant-baseline: middle; font-size: 10.2px;" y="0" x="0" id="text-entity-Report-5e1311b4-907f-59b2-bb53-aa12460d6f9a-attr-5-key" class="er entityLabel"></text><rect height="23" width="61" y="139" x="0" class="er attributeBoxEven"></rect><text transform="translate(5,150.5)" style="dominant-baseline: middle; font-size: 10.2px;" y="0" x="0" id="text-entity-Report-5e1311b4-907f-59b2-bb53-aa12460d6f9a-attr-6-type" class="er entityLabel">date</text><rect height="23" width="34.933332443237305" y="139" x="61" class="er attributeBoxEven"></rect><text transform="translate(66,150.5)" style="dominant-baseline: middle; font-size: 10.2px;" y="0" x="0" id="text-entity-Report-5e1311b4-907f-59b2-bb53-aa12460d6f9a-attr-6-name" class="er entityLabel">date</text><rect height="23" width="39.46666717529297" y="139" x="95.9333324432373" class="er attributeBoxEven"></rect><text transform="translate(100.9333324432373,150.5)" style="dominant-baseline: middle; font-size: 10.2px;" y="0" x="0" id="text-entity-Report-5e1311b4-907f-59b2-bb53-aa12460d6f9a-attr-6-key" class="er entityLabel"></text></g><rect height="14" width="43.349998474121094" y="197.4443359375" x="484.2066230773926" class="er relationshipLabelBox"></rect><text style="text-anchor: middle; dominant-baseline: middle; font-size: 12px;" y="204.4443359375" x="505.8816223144531" id="rel1" class="er relationshipLabel">создает</text><rect height="14" width="34.61666488647461" y="203.1566162109375" x="63.03155708312988" class="er relationshipLabelBox"></rect><text style="text-anchor: middle; dominant-baseline: middle; font-size: 12px;" y="210.1566162109375" x="80.33988952636719" id="rel2" class="er relationshipLabel">пишет</text><rect height="14" width="33.400001525878906" y="199.55224609375" x="216.57078170776367" class="er relationshipLabelBox"></rect><text style="text-anchor: middle; dominant-baseline: middle; font-size: 12px;" y="206.55224609375" x="233.27078247070312" id="rel3" class="er relationshipLabel">имеет</text><rect height="14" width="75.19999694824219" y="199.07879638671875" x="314.3686294555664" class="er relationshipLabelBox"></rect><text style="text-anchor: middle; dominant-baseline: middle; font-size: 12px;" y="206.07879638671875" x="351.9686279296875" id="rel4" class="er relationshipLabel">содержится в</text></svg>