<svg xmlns="http://www.w3.org/2000/svg" xmlns:xlink="http://www.w3.org/1999/xlink" contentStyleType="text/css" height="390px" preserveAspectRatio="none" style="width:881px;height:390px;background:none;" version="1.1" viewBox="0 0 881 390" width="881px" zoomAndPan="magnify"><defs/><g><rect fill="none" height="203.9297" style="stroke:#B36C8F;stroke-width:1.0;" width="10" x="490.6934" y="132.8281"/><rect fill="none" height="29.1328" style="stroke:#B36C8F;stroke-width:1.0;" width="10" x="816.021" y="161.9609"/><rect fill="none" height="29.1328" style="stroke:#B36C8F;stroke-width:1.0;" width="10" x="816.021" y="278.4922"/><line style="stroke:#B36C8F;stroke-width:0.5;stroke-dasharray:5.0,5.0;" x1="158" x2="158" y1="36.2969" y2="354.7578"/><line style="stroke:#B36C8F;stroke-width:0.5;stroke-dasharray:5.0,5.0;" x1="495.4531" x2="495.4531" y1="36.2969" y2="354.7578"/><line style="stroke:#B36C8F;stroke-width:0.5;stroke-dasharray:5.0,5.0;" x1="820.7402" x2="820.7402" y1="36.2969" y2="354.7578"/><rect fill="none" height="30.2969" rx="2.5" ry="2.5" style="stroke:#B36C8F;stroke-width:0.5;" width="58.8643" x="129" y="5"/><text fill="#008B45" font-family="sans-serif" font-size="14" lengthAdjust="spacing" textLength="44.8643" x="136" y="24.9951">Admin</text><rect fill="none" height="30.2969" rx="2.5" ry="2.5" style="stroke:#B36C8F;stroke-width:0.5;" width="58.8643" x="129" y="353.7578"/><text fill="#008B45" font-family="sans-serif" font-size="14" lengthAdjust="spacing" textLength="44.8643" x="136" y="373.7529">Admin</text><rect fill="none" height="30.2969" rx="2.5" ry="2.5" style="stroke:#B36C8F;stroke-width:0.5;" width="76.4805" x="457.4531" y="5"/><text fill="#008B45" font-family="sans-serif" font-size="14" lengthAdjust="spacing" textLength="62.4805" x="464.4531" y="24.9951">Система</text><rect fill="none" height="30.2969" rx="2.5" ry="2.5" style="stroke:#B36C8F;stroke-width:0.5;" width="76.4805" x="457.4531" y="353.7578"/><text fill="#008B45" font-family="sans-serif" font-size="14" lengthAdjust="spacing" textLength="62.4805" x="464.4531" y="373.7529">Система</text><rect fill="none" height="30.2969" rx="2.5" ry="2.5" style="stroke:#B36C8F;stroke-width:0.5;" width="108.5615" x="766.7402" y="5"/><text fill="#008B45" font-family="sans-serif" font-size="14" lengthAdjust="spacing" textLength="94.5615" x="773.7402" y="24.9951">База данных</text><rect fill="none" height="30.2969" rx="2.5" ry="2.5" style="stroke:#B36C8F;stroke-width:0.5;" width="108.5615" x="766.7402" y="353.7578"/><text fill="#008B45" font-family="sans-serif" font-size="14" lengthAdjust="spacing" textLength="94.5615" x="773.7402" y="373.7529">База данных</text><rect fill="none" height="203.9297" style="stroke:#B36C8F;stroke-width:1.0;" width="10" x="490.6934" y="132.8281"/><rect fill="none" height="29.1328" style="stroke:#B36C8F;stroke-width:1.0;" width="10" x="816.021" y="161.9609"/><rect fill="none" height="29.1328" style="stroke:#B36C8F;stroke-width:1.0;" width="10" x="816.021" y="278.4922"/><path d="M5,51.2969 L5,106.2969 L154,106.2969 L154,61.2969 L144,51.2969 L5,51.2969 " fill="none" style="stroke:#B36C8F;stroke-width:0.5;"/><path d="M144,51.2969 L144,61.2969 L154,61.2969 L144,51.2969 " fill="none" style="stroke:#B36C8F;stroke-width:0.5;"/><text fill="#008B45" font-family="sans-serif" font-size="13" lengthAdjust="spacing" textLength="107.8022" x="11" y="68.3638">Администратор</text><text fill="#008B45" font-family="sans-serif" font-size="13" lengthAdjust="spacing" textLength="120.6118" x="11" y="83.4966">может управлять</text><text fill="#008B45" font-family="sans-serif" font-size="13" lengthAdjust="spacing" textLength="128.229" x="11" y="98.6294">всеми продуктами</text><polygon fill="#B36C8F" points="478.6934,128.8281,488.6934,132.8281,478.6934,136.8281,482.6934,132.8281" style="stroke:#B36C8F;stroke-width:1.0;"/><line style="stroke:#B36C8F;stroke-width:1.0;" x1="158.4321" x2="484.6934" y1="132.8281" y2="132.8281"/><text fill="#008B45" font-family="sans-serif" font-size="13" lengthAdjust="spacing" textLength="243.4707" x="165.4321" y="127.7622">Редактировать продукт(product_id)</text><polygon fill="#B36C8F" points="804.021,157.9609,814.021,161.9609,804.021,165.9609,808.021,161.9609" style="stroke:#B36C8F;stroke-width:1.0;"/><line style="stroke:#B36C8F;stroke-width:1.0;" x1="500.6934" x2="810.021" y1="161.9609" y2="161.9609"/><text fill="#008B45" font-family="sans-serif" font-size="13" lengthAdjust="spacing" textLength="230.7754" x="507.6934" y="156.895">Найти продукты по ID(product_id)</text><polygon fill="#B36C8F" points="511.6934,187.0938,501.6934,191.0938,511.6934,195.0938,507.6934,191.0938" style="stroke:#B36C8F;stroke-width:1.0;"/><line style="stroke:#B36C8F;stroke-width:1.0;stroke-dasharray:2.0,2.0;" x1="505.6934" x2="820.021" y1="191.0938" y2="191.0938"/><text fill="#008B45" font-family="sans-serif" font-size="13" lengthAdjust="spacing" textLength="112.6201" x="517.6934" y="186.0278">Продукт найден</text><polygon fill="#B36C8F" points="169.4321,216.2266,159.4321,220.2266,169.4321,224.2266,165.4321,220.2266" style="stroke:#B36C8F;stroke-width:1.0;"/><line style="stroke:#B36C8F;stroke-width:1.0;" x1="163.4321" x2="489.6934" y1="220.2266" y2="220.2266"/><text fill="#008B45" font-family="sans-serif" font-size="13" lengthAdjust="spacing" textLength="188.9189" x="175.4321" y="215.1606">Показать данные продукта</text><polygon fill="#B36C8F" points="478.6934,245.3594,488.6934,249.3594,478.6934,253.3594,482.6934,249.3594" style="stroke:#B36C8F;stroke-width:1.0;"/><line style="stroke:#B36C8F;stroke-width:1.0;" x1="158.4321" x2="484.6934" y1="249.3594" y2="249.3594"/><text fill="#008B45" font-family="sans-serif" font-size="13" lengthAdjust="spacing" textLength="236.0186" x="165.4321" y="244.2935">Внести изменения(новые данные)</text><polygon fill="#B36C8F" points="804.021,274.4922,814.021,278.4922,804.021,282.4922,808.021,278.4922" style="stroke:#B36C8F;stroke-width:1.0;"/><line style="stroke:#B36C8F;stroke-width:1.0;" x1="500.6934" x2="810.021" y1="278.4922" y2="278.4922"/><text fill="#008B45" font-family="sans-serif" font-size="13" lengthAdjust="spacing" textLength="296.3276" x="507.6934" y="273.4263">Обновить отзыв(product_id, новые данные)</text><polygon fill="#B36C8F" points="511.6934,303.625,501.6934,307.625,511.6934,311.625,507.6934,307.625" style="stroke:#B36C8F;stroke-width:1.0;"/><line style="stroke:#B36C8F;stroke-width:1.0;stroke-dasharray:2.0,2.0;" x1="505.6934" x2="820.021" y1="307.625" y2="307.625"/><text fill="#008B45" font-family="sans-serif" font-size="13" lengthAdjust="spacing" textLength="213.7002" x="517.6934" y="302.5591">Данные о продукте обновлены</text><polygon fill="#B36C8F" points="169.4321,332.7578,159.4321,336.7578,169.4321,340.7578,165.4321,336.7578" style="stroke:#B36C8F;stroke-width:1.0;"/><line style="stroke:#B36C8F;stroke-width:1.0;stroke-dasharray:2.0,2.0;" x1="163.4321" x2="494.6934" y1="336.7578" y2="336.7578"/><text fill="#008B45" font-family="sans-serif" font-size="13" lengthAdjust="spacing" textLength="308.2612" x="175.4321" y="331.6919">Подтверждение успешного редактирования</text><!--SRC=[VLBBIiDG5DpdAmvTjM1_m8LWoSQr7o2XII5Waz96mLqV24A5ghZrzGSnDZRsaVx2EN_at7jBZR5r4IwSEpDdPdA3CFBet6j55BRes6txWSLtFEKbPxpYJ0Oob3x7CkHS-cHXdlCdfp8a6V5QNN722va0TelhH0QSAZBfovodWCt1ZjNGyWAN0hNHSffHsDqix3ZTo6_w7IU8gC9lPgkMYIlazEZqgXTvxHBi7f8pZWbUOpXToLYkDTfkM9RMfVhHXdf8_0ezXLHUCkqiKQbW-hVHQgSRkXVDwCntQygaV-d0xiQ1EPIktO3c4_I-b5v9GyOOS4udzcurEBGRL2_QUodo2NcW3ByfhopNAn9_BEYCYWhYt9HXycmBuVJFNzZHp0F0gMuSEJB8BDLQ_MKogU90LqQie5mhb_7CxmOAbhQHGt46Q58euO3soltNpcCnKLuEfMRRvGjbNCPxMYlLDWKxGVW-dlJK98QQZF28rnZVQCqFR0HYn_Cn3HLNcJtV]--></g></svg>