<svg xmlns="http://www.w3.org/2000/svg" xmlns:xlink="http://www.w3.org/1999/xlink" contentStyleType="text/css" height="258px" preserveAspectRatio="none" style="width:775px;height:258px;background:none;" version="1.1" viewBox="0 0 775 258" width="775px" zoomAndPan="magnify"><defs/><g><rect fill="none" height="87.3984" style="stroke:#B36C8F;stroke-width:1.0;" width="10" x="401.8091" y="117.6953"/><rect fill="none" height="29.1328" style="stroke:#B36C8F;stroke-width:1.0;" width="10" x="710.4868" y="146.8281"/><line style="stroke:#B36C8F;stroke-width:0.5;stroke-dasharray:5.0,5.0;" x1="174" x2="174" y1="36.2969" y2="223.0938"/><line style="stroke:#B36C8F;stroke-width:0.5;stroke-dasharray:5.0,5.0;" x1="406.5688" x2="406.5688" y1="36.2969" y2="223.0938"/><line style="stroke:#B36C8F;stroke-width:0.5;stroke-dasharray:5.0,5.0;" x1="715.2061" x2="715.2061" y1="36.2969" y2="223.0938"/><rect fill="none" height="30.2969" rx="2.5" ry="2.5" style="stroke:#B36C8F;stroke-width:0.5;" width="45.9102" x="152" y="5"/><text fill="#008B45" font-family="sans-serif" font-size="14" lengthAdjust="spacing" textLength="31.9102" x="159" y="24.9951">User</text><rect fill="none" height="30.2969" rx="2.5" ry="2.5" style="stroke:#B36C8F;stroke-width:0.5;" width="45.9102" x="152" y="222.0938"/><text fill="#008B45" font-family="sans-serif" font-size="14" lengthAdjust="spacing" textLength="31.9102" x="159" y="242.0889">User</text><rect fill="none" height="30.2969" rx="2.5" ry="2.5" style="stroke:#B36C8F;stroke-width:0.5;" width="76.4805" x="368.5688" y="5"/><text fill="#008B45" font-family="sans-serif" font-size="14" lengthAdjust="spacing" textLength="62.4805" x="375.5688" y="24.9951">&#1057;&#1080;&#1089;&#1090;&#1077;&#1084;&#1072;</text><rect fill="none" height="30.2969" rx="2.5" ry="2.5" style="stroke:#B36C8F;stroke-width:0.5;" width="76.4805" x="368.5688" y="222.0938"/><text fill="#008B45" font-family="sans-serif" font-size="14" lengthAdjust="spacing" textLength="62.4805" x="375.5688" y="242.0889">&#1057;&#1080;&#1089;&#1090;&#1077;&#1084;&#1072;</text><rect fill="none" height="30.2969" rx="2.5" ry="2.5" style="stroke:#B36C8F;stroke-width:0.5;" width="108.5615" x="661.2061" y="5"/><text fill="#008B45" font-family="sans-serif" font-size="14" lengthAdjust="spacing" textLength="94.5615" x="668.2061" y="24.9951">&#1041;&#1072;&#1079;&#1072; &#1076;&#1072;&#1085;&#1085;&#1099;&#1093;</text><rect fill="none" height="30.2969" rx="2.5" ry="2.5" style="stroke:#B36C8F;stroke-width:0.5;" width="108.5615" x="661.2061" y="222.0938"/><text fill="#008B45" font-family="sans-serif" font-size="14" lengthAdjust="spacing" textLength="94.5615" x="668.2061" y="242.0889">&#1041;&#1072;&#1079;&#1072; &#1076;&#1072;&#1085;&#1085;&#1099;&#1093;</text><rect fill="none" height="87.3984" style="stroke:#B36C8F;stroke-width:1.0;" width="10" x="401.8091" y="117.6953"/><rect fill="none" height="29.1328" style="stroke:#B36C8F;stroke-width:1.0;" width="10" x="710.4868" y="146.8281"/><path d="M5,51.2969 L5,91.2969 L170,91.2969 L170,61.2969 L160,51.2969 L5,51.2969 " fill="none" style="stroke:#B36C8F;stroke-width:0.5;"/><path d="M160,51.2969 L160,61.2969 L170,61.2969 L160,51.2969 " fill="none" style="stroke:#B36C8F;stroke-width:0.5;"/><text fill="#008B45" font-family="sans-serif" font-size="13" lengthAdjust="spacing" textLength="144.9106" x="11" y="68.3638">&#1055;&#1086;&#1083;&#1100;&#1079;&#1086;&#1074;&#1072;&#1090;&#1077;&#1083;&#1100; &#1084;&#1086;&#1078;&#1077;&#1090;</text><text fill="#008B45" font-family="sans-serif" font-size="13" lengthAdjust="spacing" textLength="118.7266" x="11" y="83.4966">&#1089;&#1084;&#1086;&#1090;&#1088;&#1077;&#1090;&#1100; &#1086;&#1090;&#1079;&#1099;&#1074;&#1099;</text><polygon fill="#B36C8F" points="389.8091,113.6953,399.8091,117.6953,389.8091,121.6953,393.8091,117.6953" style="stroke:#B36C8F;stroke-width:1.0;"/><line style="stroke:#B36C8F;stroke-width:1.0;" x1="174.9551" x2="395.8091" y1="117.6953" y2="117.6953"/><text fill="#008B45" font-family="sans-serif" font-size="13" lengthAdjust="spacing" textLength="207.854" x="181.9551" y="112.6294">&#1055;&#1088;&#1086;&#1089;&#1084;&#1086;&#1090;&#1088; &#1086;&#1090;&#1079;&#1099;&#1074;&#1086;&#1074; &#1086; &#1087;&#1088;&#1086;&#1076;&#1091;&#1082;&#1090;&#1077;</text><polygon fill="#B36C8F" points="698.4868,142.8281,708.4868,146.8281,698.4868,150.8281,702.4868,146.8281" style="stroke:#B36C8F;stroke-width:1.0;"/><line style="stroke:#B36C8F;stroke-width:1.0;" x1="411.8091" x2="704.4868" y1="146.8281" y2="146.8281"/><text fill="#008B45" font-family="sans-serif" font-size="13" lengthAdjust="spacing" textLength="279.6777" x="418.8091" y="141.7622">&#1055;&#1086;&#1083;&#1091;&#1095;&#1080;&#1090;&#1100; &#1086;&#1090;&#1079;&#1099;&#1074;&#1099; &#1086; &#1087;&#1088;&#1086;&#1076;&#1091;&#1082;&#1090;&#1077;(product_id)</text><polygon fill="#B36C8F" points="422.8091,171.9609,412.8091,175.9609,422.8091,179.9609,418.8091,175.9609" style="stroke:#B36C8F;stroke-width:1.0;"/><line style="stroke:#B36C8F;stroke-width:1.0;stroke-dasharray:2.0,2.0;" x1="416.8091" x2="714.4868" y1="175.9609" y2="175.9609"/><text fill="#008B45" font-family="sans-serif" font-size="13" lengthAdjust="spacing" textLength="111.3569" x="428.8091" y="170.895">&#1042;&#1077;&#1088;&#1085;&#1091;&#1090;&#1100; &#1086;&#1090;&#1079;&#1099;&#1074;&#1099;</text><polygon fill="#B36C8F" points="185.9551,201.0938,175.9551,205.0938,185.9551,209.0938,181.9551,205.0938" style="stroke:#B36C8F;stroke-width:1.0;"/><line style="stroke:#B36C8F;stroke-width:1.0;stroke-dasharray:2.0,2.0;" x1="179.9551" x2="405.8091" y1="205.0938" y2="205.0938"/><text fill="#008B45" font-family="sans-serif" font-size="13" lengthAdjust="spacing" textLength="118.4219" x="191.9551" y="200.0278">&#1055;&#1086;&#1082;&#1072;&#1079;&#1072;&#1090;&#1100; &#1086;&#1090;&#1079;&#1099;&#1074;&#1099;</text><!--SRC=[VP0nJiD044NxFSKe5HIv00M5vHiWQcJP6yaIs9Qz8D4bjX25QU024JUmeeIWa8Gh_BaHCxQZM0HHxVxT-N_UJ98wIxTsuYYTq7LXSuCvzlZY5wpbNA3X4YlLXAqyV635fU6P2YvvgbB_H63DDHPSax59H8a66nE4Bisxu2p8NHp6MP0u6k4TdpnhixTeHXGKTFLOE7ltg-mLZO0qXALSTjXnpKzjjUyPex4qlkoT5uIv0EsFS0CidKKauLjBiEGA6-skWF538Anz- -xGLD_Jn7OP5JyBxicWV-ITPNaQtOVk9exEZza2wtiq7gA-oUQcCazr4ciYEpGUWCIiy_PCcsul_vexvmy0]--></g></svg>