<svg xmlns="http://www.w3.org/2000/svg" xmlns:xlink="http://www.w3.org/1999/xlink" contentStyleType="text/css" height="346px" preserveAspectRatio="none" style="width:745px;height:346px;background:none;" version="1.1" viewBox="0 0 745 346" width="745px" zoomAndPan="magnify"><defs/><g><rect fill="none" height="160.7969" style="stroke:#B36C8F;stroke-width:1.0;" width="10" x="446.5269" y="132.8281"/><rect fill="none" height="29.1328" style="stroke:#B36C8F;stroke-width:1.0;" width="10" x="679.8008" y="161.9609"/><rect fill="none" height="29.1328" style="stroke:#B36C8F;stroke-width:1.0;" width="10" x="679.8008" y="220.2266"/><line style="stroke:#B36C8F;stroke-width:0.5;stroke-dasharray:5.0,5.0;" x1="202" x2="202" y1="36.2969" y2="311.625"/><line style="stroke:#B36C8F;stroke-width:0.5;stroke-dasharray:5.0,5.0;" x1="451.2866" x2="451.2866" y1="36.2969" y2="311.625"/><line style="stroke:#B36C8F;stroke-width:0.5;stroke-dasharray:5.0,5.0;" x1="684.52" x2="684.52" y1="36.2969" y2="311.625"/><rect fill="none" height="30.2969" rx="2.5" ry="2.5" style="stroke:#B36C8F;stroke-width:0.5;" width="45.9102" x="180" y="5"/><text fill="#008B45" font-family="sans-serif" font-size="14" lengthAdjust="spacing" textLength="31.9102" x="187" y="24.9951">User</text><rect fill="none" height="30.2969" rx="2.5" ry="2.5" style="stroke:#B36C8F;stroke-width:0.5;" width="45.9102" x="180" y="310.625"/><text fill="#008B45" font-family="sans-serif" font-size="14" lengthAdjust="spacing" textLength="31.9102" x="187" y="330.6201">User</text><rect fill="none" height="30.2969" rx="2.5" ry="2.5" style="stroke:#B36C8F;stroke-width:0.5;" width="76.4805" x="413.2866" y="5"/><text fill="#008B45" font-family="sans-serif" font-size="14" lengthAdjust="spacing" textLength="62.4805" x="420.2866" y="24.9951">Система</text><rect fill="none" height="30.2969" rx="2.5" ry="2.5" style="stroke:#B36C8F;stroke-width:0.5;" width="76.4805" x="413.2866" y="310.625"/><text fill="#008B45" font-family="sans-serif" font-size="14" lengthAdjust="spacing" textLength="62.4805" x="420.2866" y="330.6201">Система</text><rect fill="none" height="30.2969" rx="2.5" ry="2.5" style="stroke:#B36C8F;stroke-width:0.5;" width="108.5615" x="630.52" y="5"/><text fill="#008B45" font-family="sans-serif" font-size="14" lengthAdjust="spacing" textLength="94.5615" x="637.52" y="24.9951">База данных</text><rect fill="none" height="30.2969" rx="2.5" ry="2.5" style="stroke:#B36C8F;stroke-width:0.5;" width="108.5615" x="630.52" y="310.625"/><text fill="#008B45" font-family="sans-serif" font-size="14" lengthAdjust="spacing" textLength="94.5615" x="637.52" y="330.6201">База данных</text><rect fill="none" height="160.7969" style="stroke:#B36C8F;stroke-width:1.0;" width="10" x="446.5269" y="132.8281"/><rect fill="none" height="29.1328" style="stroke:#B36C8F;stroke-width:1.0;" width="10" x="679.8008" y="161.9609"/><rect fill="none" height="29.1328" style="stroke:#B36C8F;stroke-width:1.0;" width="10" x="679.8008" y="220.2266"/><path d="M5,51.2969 L5,106.2969 L198,106.2969 L198,61.2969 L188,51.2969 L5,51.2969 " fill="none" style="stroke:#B36C8F;stroke-width:0.5;"/><path d="M188,51.2969 L188,61.2969 L198,61.2969 L188,51.2969 " fill="none" style="stroke:#B36C8F;stroke-width:0.5;"/><text fill="#008B45" font-family="sans-serif" font-size="13" lengthAdjust="spacing" textLength="143.9521" x="11" y="68.3638">Система уведомляет</text><text fill="#008B45" font-family="sans-serif" font-size="13" lengthAdjust="spacing" textLength="161.5352" x="11" y="83.4966">пользователей о новых</text><text fill="#008B45" font-family="sans-serif" font-size="13" lengthAdjust="spacing" textLength="168.105" x="11" y="98.6294">отзывах на их продукты</text><polygon fill="#B36C8F" points="434.5269,128.8281,444.5269,132.8281,434.5269,136.8281,438.5269,132.8281" style="stroke:#B36C8F;stroke-width:1.0;"/><line style="stroke:#B36C8F;stroke-width:1.0;" x1="202.9551" x2="440.5269" y1="132.8281" y2="132.8281"/><text fill="#008B45" font-family="sans-serif" font-size="13" lengthAdjust="spacing" textLength="159.269" x="209.9551" y="127.7622">Оставить отзыв(отзыв)</text><polygon fill="#B36C8F" points="667.8008,157.9609,677.8008,161.9609,667.8008,165.9609,671.8008,161.9609" style="stroke:#B36C8F;stroke-width:1.0;"/><line style="stroke:#B36C8F;stroke-width:1.0;" x1="456.5269" x2="673.8008" y1="161.9609" y2="161.9609"/><text fill="#008B45" font-family="sans-serif" font-size="13" lengthAdjust="spacing" textLength="168.1304" x="463.5269" y="156.895">Сохранить отзыв(отзыв)</text><polygon fill="#B36C8F" points="467.5269,187.0938,457.5269,191.0938,467.5269,195.0938,463.5269,191.0938" style="stroke:#B36C8F;stroke-width:1.0;"/><line style="stroke:#B36C8F;stroke-width:1.0;stroke-dasharray:2.0,2.0;" x1="461.5269" x2="683.8008" y1="191.0938" y2="191.0938"/><text fill="#008B45" font-family="sans-serif" font-size="13" lengthAdjust="spacing" textLength="110.7856" x="473.5269" y="186.0278">Отзыв сохранен</text><polygon fill="#B36C8F" points="667.8008,216.2266,677.8008,220.2266,667.8008,224.2266,671.8008,220.2266" style="stroke:#B36C8F;stroke-width:1.0;"/><line style="stroke:#B36C8F;stroke-width:1.0;" x1="456.5269" x2="673.8008" y1="220.2266" y2="220.2266"/><text fill="#008B45" font-family="sans-serif" font-size="13" lengthAdjust="spacing" textLength="204.2739" x="463.5269" y="215.1606">Получить продавца продукта</text><polygon fill="#B36C8F" points="467.5269,245.3594,457.5269,249.3594,467.5269,253.3594,463.5269,249.3594" style="stroke:#B36C8F;stroke-width:1.0;"/><line style="stroke:#B36C8F;stroke-width:1.0;stroke-dasharray:2.0,2.0;" x1="461.5269" x2="683.8008" y1="249.3594" y2="249.3594"/><text fill="#008B45" font-family="sans-serif" font-size="13" lengthAdjust="spacing" textLength="121.9766" x="473.5269" y="244.2935">Продавец найден</text><polygon fill="#B36C8F" points="213.9551,289.625,203.9551,293.625,213.9551,297.625,209.9551,293.625" style="stroke:#B36C8F;stroke-width:1.0;"/><line style="stroke:#B36C8F;stroke-width:1.0;" x1="207.9551" x2="450.5269" y1="293.625" y2="293.625"/><text fill="#008B45" font-family="sans-serif" font-size="13" lengthAdjust="spacing" textLength="202.1729" x="219.9551" y="273.4263">Уведомление о новом отзыве</text><text fill="#008B45" font-family="sans-serif" font-size="13" lengthAdjust="spacing" textLength="219.5718" x="219.9551" y="288.5591">отправлено продавцу продукта</text><!--SRC=[ZP91QeDG48RtxnH3LkqY5-YY2_46fRjk934Wj2OOANJNAAOB0wKNQ0YzW8WIqrIzmioDElCqQ2o4BkJDU- -VVxwPfpltRNYqPpxCPt2_j3s5EoneHG7c-8C9K8WfXnbMl3tIE-OKAAnvUwGDxdbDCT7g8ty7m0gmb5EAAL9OyTMUOYsAv2O1jkUefbTMPMp_JG75e6nt2gxGA6LD_BdNq2miptScpi9oVHYTeut0MiBTozAtdmQo3qoOZ2jb79HO2efMcuPIOWlZspRp1l1JMoQCM3391Zhcgowy5YZdsMA-jcIpY9DfiCkEjH7t90N_vyCmfW7ZSvHM1hJg-ULOggdTJnmKt-hd2EdjLBgThdH5Qvd4sRWnkKYnxPBvjTVwrV301vSuPAoS-zN_MoG12yoxdqBEUuFXgmTNRslTQjhcL8CEAFpRGG-aeVW5]--></g></svg>