<svg xmlns="http://www.w3.org/2000/svg" xmlns:xlink="http://www.w3.org/1999/xlink" contentStyleType="text/css" height="508px" preserveAspectRatio="none" style="width:868px;height:508px;background:none;" version="1.1" viewBox="0 0 868 508" width="868px" zoomAndPan="magnify"><defs/><g><!--cluster ??????? ?????????? ????????--><g id="cluster_Система управления отзывами"><rect fill="none" height="495" rx="2.5" ry="2.5" style="stroke:#B36C8F;stroke-width:1.0;" width="648" x="214" y="7"/><text fill="#008B45" font-family="sans-serif" font-size="14" font-weight="bold" lengthAdjust="spacing" textLength="250.0654" x="412.9673" y="21.9951">Система управления отзывами</text></g><g id="elem_UC1"><ellipse cx="367.8533" cy="369.0707" fill="none" rx="95.8533" ry="21.5707" style="stroke:#B36C8F;stroke-width:0.5;"/><text fill="#008B45" font-family="sans-serif" font-size="14" lengthAdjust="spacing" textLength="154.875" x="290.4158" y="371.9173">Управление отзывом</text></g><g id="elem_UC2"><ellipse cx="367.8861" cy="211.1772" fill="none" rx="103.8861" ry="23.1772" style="stroke:#B36C8F;stroke-width:0.5;"/><text fill="#008B45" font-family="sans-serif" font-size="14" lengthAdjust="spacing" textLength="172.5869" x="281.5927" y="214.0239">Управление продуктом</text></g><g id="elem_Оставить отзыв"><ellipse cx="367.9255" cy="60.7851" fill="none" rx="79.4255" ry="18.2851" style="stroke:#B36C8F;stroke-width:0.5;"/><text fill="#008B45" font-family="sans-serif" font-size="14" lengthAdjust="spacing" textLength="117.127" x="307.4762" y="64.2294">Оставить отзыв</text></g><g id="elem_Просмотреть отзывы"><ellipse cx="367.7866" cy="291.1573" fill="none" rx="96.2866" ry="21.6573" style="stroke:#B36C8F;stroke-width:0.5;"/><text fill="#008B45" font-family="sans-serif" font-size="14" lengthAdjust="spacing" textLength="155.8389" x="289.8672" y="294.004">Просмотреть отзывы</text></g><g id="elem_Создать продукт"><ellipse cx="368.1729" cy="134.0346" fill="none" rx="83.1729" ry="19.0346" style="stroke:#B36C8F;stroke-width:0.5;"/><text fill="#008B45" font-family="sans-serif" font-size="14" lengthAdjust="spacing" textLength="126.082" x="304.5972" y="137.0625">Создать продукт</text></g><g id="elem_Редактировать продукт"><ellipse cx="740.0669" cy="275.1134" fill="none" rx="106.0669" ry="23.6134" style="stroke:#B36C8F;stroke-width:0.5;"/><text fill="#008B45" font-family="sans-serif" font-size="14" lengthAdjust="spacing" textLength="177.3447" x="651.3945" y="277.9601">Редактировать продукт</text></g><g id="elem_Удалить продукт"><ellipse cx="740.012" cy="197.1024" fill="none" rx="83.512" ry="19.1024" style="stroke:#B36C8F;stroke-width:0.5;"/><text fill="#008B45" font-family="sans-serif" font-size="14" lengthAdjust="spacing" textLength="126.875" x="676.1534" y="200.0926">Удалить продукт</text></g><g id="elem_Редактировать отзыв"><ellipse cx="739.9967" cy="433.9993" fill="none" rx="97.9967" ry="21.9993" style="stroke:#B36C8F;stroke-width:0.5;"/><text fill="#008B45" font-family="sans-serif" font-size="14" lengthAdjust="spacing" textLength="159.6328" x="660.1803" y="436.846">Редактировать отзыв</text></g><g id="elem_Удалить отзыв"><ellipse cx="740.2317" cy="359.1463" fill="none" rx="76.2317" ry="17.6463" style="stroke:#B36C8F;stroke-width:0.5;"/><text fill="#008B45" font-family="sans-serif" font-size="14" lengthAdjust="spacing" textLength="109.1631" x="682.6502" y="362.8939">Удалить отзыв</text></g><g id="elem_Сгенерировать отчет о продукте"><ellipse cx="368.117" cy="456.0234" fill="none" rx="138.117" ry="30.0234" style="stroke:#B36C8F;stroke-width:0.5;"/><text fill="#008B45" font-family="sans-serif" font-size="14" lengthAdjust="spacing" textLength="245.6563" x="245.2889" y="458.8701">Сгенерировать отчет о продукте</text></g><!--entity User--><g id="elem_User"><ellipse cx="21.9551" cy="146.5" fill="none" rx="8" ry="8" style="stroke:#B36C8F;stroke-width:0.5;"/><path d="M21.9551,154.5 L21.9551,181.5 M8.9551,162.5 L34.9551,162.5 M21.9551,181.5 L8.9551,196.5 M21.9551,181.5 L34.9551,196.5 " fill="none" style="stroke:#B36C8F;stroke-width:0.5;"/><text fill="#008B45" font-family="sans-serif" font-size="14" lengthAdjust="spacing" textLength="31.9102" x="6" y="210.9951">User</text></g><!--entity Costomer--><g id="elem_Costomer"><ellipse cx="132.8481" cy="33.5" fill="none" rx="8" ry="8" style="stroke:#B36C8F;stroke-width:0.5;"/><path d="M132.8481,41.5 L132.8481,68.5 M119.8481,49.5 L145.8481,49.5 M132.8481,68.5 L119.8481,83.5 M132.8481,68.5 L145.8481,83.5 " fill="none" style="stroke:#B36C8F;stroke-width:0.5;"/><text fill="#008B45" font-family="sans-serif" font-size="14" lengthAdjust="spacing" textLength="67.6963" x="99" y="97.9951">Costomer</text></g><!--entity Salesman--><g id="elem_Salesman"><ellipse cx="133.1763" cy="146.5" fill="none" rx="8" ry="8" style="stroke:#B36C8F;stroke-width:0.5;"/><path d="M133.1763,154.5 L133.1763,181.5 M120.1763,162.5 L146.1763,162.5 M133.1763,181.5 L120.1763,196.5 M133.1763,181.5 L146.1763,196.5 " fill="none" style="stroke:#B36C8F;stroke-width:0.5;"/><text fill="#008B45" font-family="sans-serif" font-size="14" lengthAdjust="spacing" textLength="68.3525" x="99" y="210.9951">Salesman</text></g><!--entity Admin--><g id="elem_Admin"><ellipse cx="132.9321" cy="332.5" fill="none" rx="8" ry="8" style="stroke:#B36C8F;stroke-width:0.5;"/><path d="M132.9321,340.5 L132.9321,367.5 M119.9321,348.5 L145.9321,348.5 M132.9321,367.5 L119.9321,382.5 M132.9321,367.5 L145.9321,382.5 " fill="none" style="stroke:#B36C8F;stroke-width:0.5;"/><text fill="#008B45" font-family="sans-serif" font-size="14" lengthAdjust="spacing" textLength="44.8643" x="110.5" y="396.9951">Admin</text></g><!--link Costomer to ???????? ?????--><g id="link_Costomer_Оставить отзыв"><path d="M167.38,62.71 C198.84,62.44 241.1702,62.0824 282.4002,61.7224 " fill="none" id="Costomer-to-Оставить отзыв" style="stroke:#B36C8F;stroke-width:1.0;"/><polygon fill="#B36C8F" points="288.4,61.67,279.3654,57.7487,283.4002,61.7137,279.4353,65.7484,288.4,61.67" style="stroke:#B36C8F;stroke-width:1.0;"/></g><!--link User to ??????????? ??????--><g id="link_User_Просмотреть отзывы"><path d="M38.13,189.84 C52.68,202.42 75.84,220.56 99,231 C157.36,257.3 222.283,271.5772 276.483,280.1072 " fill="none" id="User-to-Просмотреть отзывы" style="stroke:#B36C8F;stroke-width:1.0;"/><polygon fill="#B36C8F" points="282.41,281.04,274.1413,275.6894,277.4708,280.2627,272.8976,283.5922,282.41,281.04" style="stroke:#B36C8F;stroke-width:1.0;"/></g><!--link Salesman to ??????? ???????--><g id="link_Salesman_Создать продукт"><path d="M167.21,166.92 C176.78,164.48 187.27,161.98 197,160 C229.19,153.47 259.1615,148.6067 289.6615,144.2067 " fill="none" id="Salesman-to-Создать продукт" style="stroke:#B36C8F;stroke-width:1.0;"/><polygon fill="#B36C8F" points="295.6,143.35,286.1211,140.676,290.6512,144.0639,287.2634,148.5941,295.6,143.35" style="stroke:#B36C8F;stroke-width:1.0;"/></g><!--link Salesman to UC2--><g id="link_Salesman_UC2"><path d="M167.38,181.01 C197.08,185.48 235.8766,191.2985 275.4766,197.2485 " fill="none" id="Salesman-to-UC2" style="stroke:#B36C8F;stroke-width:1.0;"/><polygon fill="#B36C8F" points="281.41,198.14,273.1042,192.8471,276.4655,197.3971,271.9156,200.7583,281.41,198.14" style="stroke:#B36C8F;stroke-width:1.0;"/></g><!--link UC2 to ????????????? ???????--><g id="link_UC2_Редактировать продукт"><path d="M450.66,225.12 C511.63,235.67 588.7379,249.0067 650.0379,259.6167 " fill="none" id="UC2-to-Редактировать продукт" style="stroke:#B36C8F;stroke-width:1.0;stroke-dasharray:7.0,7.0;"/><polygon fill="#B36C8F" points="655.95,260.64,647.764,255.1637,651.0233,259.7873,646.3997,263.0465,655.95,260.64" style="stroke:#B36C8F;stroke-width:1.0;"/><text fill="#008B45" font-family="sans-serif" font-size="13" lengthAdjust="spacing" textLength="66.2061" x="537" y="238.0669">'"include"'</text></g><!--link UC2 to ??????? ???????--><g id="link_UC2_Удалить продукт"><path d="M470.59,207.16 C529.43,204.93 596.4943,202.3977 651.5343,200.3077 " fill="none" id="UC2-to-Удалить продукт" style="stroke:#B36C8F;stroke-width:1.0;stroke-dasharray:7.0,7.0;"/><polygon fill="#B36C8F" points="657.53,200.08,648.3847,196.4244,652.5336,200.2697,648.6883,204.4186,657.53,200.08" style="stroke:#B36C8F;stroke-width:1.0;"/><text fill="#008B45" font-family="sans-serif" font-size="13" lengthAdjust="spacing" textLength="66.2061" x="537" y="199.0669">'"include"'</text></g><!--link Admin to UC1--><g id="link_Admin_UC1"><path d="M155.5,362.65 C182.2,363.45 223.5027,364.6905 266.6127,365.9805 " fill="none" id="Admin-to-UC1" style="stroke:#B36C8F;stroke-width:1.0;"/><polygon fill="#B36C8F" points="272.61,366.16,263.7337,361.8926,267.6122,366.0104,263.4944,369.889,272.61,366.16" style="stroke:#B36C8F;stroke-width:1.0;"/></g><!--link Admin to ??????????? ??????--><g id="link_Admin_Просмотреть отзывы"><path d="M155.65,351.15 C169.73,344.39 188.65,335.9 206,330 C234.86,320.18 261.5704,313.1451 289.8304,306.6951 " fill="none" id="Admin-to-Просмотреть отзывы" style="stroke:#B36C8F;stroke-width:1.0;"/><polygon fill="#B36C8F" points="295.68,305.36,286.0156,303.4629,290.8054,306.4726,287.7957,311.2624,295.68,305.36" style="stroke:#B36C8F;stroke-width:1.0;"/></g><!--link UC1 to ????????????? ?????--><g id="link_UC1_Редактировать отзыв"><path d="M444.32,382.23 C507.81,393.39 592.3806,408.2415 656.2806,419.4715 " fill="none" id="UC1-to-Редактировать отзыв" style="stroke:#B36C8F;stroke-width:1.0;stroke-dasharray:7.0,7.0;"/><polygon fill="#B36C8F" points="662.19,420.51,654.0182,415.0126,657.2655,419.6445,652.6335,422.8918,662.19,420.51" style="stroke:#B36C8F;stroke-width:1.0;"/><text fill="#008B45" font-family="sans-serif" font-size="13" lengthAdjust="spacing" textLength="66.2061" x="537" y="396.0669">'"include"'</text></g><!--link UC1 to ??????? ?????--><g id="link_UC1_Удалить отзыв"><path d="M463.32,366.45 C525.74,364.76 600.4422,362.7415 658.3822,361.1815 " fill="none" id="UC1-to-Удалить отзыв" style="stroke:#B36C8F;stroke-width:1.0;stroke-dasharray:7.0,7.0;"/><polygon fill="#B36C8F" points="664.38,361.02,655.2756,357.2637,659.3818,361.1546,655.4909,365.2608,664.38,361.02" style="stroke:#B36C8F;stroke-width:1.0;"/><text fill="#008B45" font-family="sans-serif" font-size="13" lengthAdjust="spacing" textLength="66.2061" x="537" y="359.0669">'"include"'</text></g><!--link Admin to UC2--><g id="link_Admin_UC2"><path d="M150.11,323.78 C162.14,299.74 180.83,269.98 206,252 C226.54,237.33 246.0166,229.3451 270.4366,223.2851 " fill="none" id="Admin-to-UC2" style="stroke:#B36C8F;stroke-width:1.0;"/><polygon fill="#B36C8F" points="276.26,221.84,266.5615,220.1254,271.4072,223.0443,268.4884,227.8899,276.26,221.84" style="stroke:#B36C8F;stroke-width:1.0;"/></g><!--link Admin to ????????????? ????? ? ????????--><g id="link_Admin_Сгенерировать отчет о продукте"><path d="M155.78,378.19 C169.61,387.88 188.2,399.85 206,408 C227.88,418.01 246.6352,424.8286 269.7952,431.8086 " fill="none" id="Admin-to-Сгенерировать отчет о продукте" style="stroke:#B36C8F;stroke-width:1.0;"/><polygon fill="#B36C8F" points="275.54,433.54,268.0771,427.1131,270.7527,432.0972,265.7686,434.7728,275.54,433.54" style="stroke:#B36C8F;stroke-width:1.0;"/></g><!--reverse link User to Costomer--><g id="link_User_Costomer"><path d="M50.657,147.3352 C66.217,131.2052 78.44,118.53 98.6,97.62 " fill="none" id="User-backto-Costomer" style="stroke:#B36C8F;stroke-width:1.0;"/><polygon fill="none" points="38.16,160.29,54.9752,151.5009,46.3387,143.1696,38.16,160.29" style="stroke:#B36C8F;stroke-width:1.0;"/></g><!--reverse link User to Salesman--><g id="link_User_Salesman"><path d="M56.16,176 C71.72,176 78.44,176 98.6,176 " fill="none" id="User-backto-Salesman" style="stroke:#B36C8F;stroke-width:1.0;"/><polygon fill="none" points="38.16,176,56.16,182,56.16,170,38.16,176" style="stroke:#B36C8F;stroke-width:1.0;"/></g><!--SRC=[ZPDFJeD05CRtSueNDhKBchHBOqmCHp0z0A5Z9U5F0dIb9hOkNDJ46wXDBq1gIOcjU8KtD-gR0KgbH9dLyERzllc-cS7XDn54FWJs-3Q2aHrmAx9zZvbMv0Sm37bGJ0q_Z7pty7bjEZnqpRBnQkJQ7gCXUTCREnmqN60gfcA62Uum1l64F-8HOrpXbahVjFWAcD7wHiof65DNgi4T0ngJa5jcoE4CbtKAasCgmrqNp126HhyDA4iPhidB5qbKy80fkWm9kdv94c_AlfH8nKoy7EtRLUtoU8hMToaiffI1UcYUr00npv7ot0fiGHuskCOuR_zbhm6GHjN6nW2WrvCA7nIEU9KdLVYgMGtEeQFPdkLCHbph76HobQNIs9Ov_oNLVHUM-hLA-yCWjaMCwj0R8_IR8_n97TiVdDXVuATwCGdvEFKYdcKUcjPVKz9b3uofDt5nh-lL7rELoilS0m00]--></g></svg>